<svg width="27" height="28" viewBox="0 0 27 28" fill="none" xmlns="http://www.w3.org/2000/svg">
<mask id="path-1-inside-1_52_864" fill="white">
<path d="M12.5596 22.0285L9.30924 26.8576C9.11929 27.138 8.8746 27.3791 8.58917 27.5669C8.30374 27.7548 7.9832 27.8857 7.64589 27.9523C7.48409 27.9838 7.31951 27.9998 7.15452 28C6.6737 28.0011 6.20366 27.8608 5.80553 27.5973C5.52432 27.4136 5.28523 27.1747 5.10345 26.8959C4.92167 26.6171 4.80115 26.3044 4.74954 25.9777C4.69616 25.6519 4.71111 25.3189 4.79348 24.999C4.87585 24.679 5.02392 24.3787 5.2287 24.1164L9.69989 18.4492C9.74899 18.3871 9.81012 18.3351 9.87979 18.2961C9.94946 18.2571 10.0263 18.2319 10.1059 18.2219C10.1856 18.2119 10.2664 18.2174 10.3439 18.238C10.4214 18.2585 10.494 18.2938 10.5575 18.3418C10.621 18.3898 10.6743 18.4495 10.7142 18.5176C10.7541 18.5857 10.7799 18.6608 10.7901 18.7386C10.8003 18.8165 10.7947 18.8955 10.7736 18.9712C10.7526 19.047 10.7165 19.1179 10.6674 19.18L6.19619 24.8472C6.09244 24.9809 6.01779 25.1339 5.97685 25.2968C5.9359 25.4598 5.92953 25.6292 5.95813 25.7946C5.98672 25.96 6.04967 26.118 6.1431 26.2587C6.23654 26.3995 6.35847 26.5201 6.50139 26.613C6.63453 26.7 6.7841 26.7601 6.94133 26.7898C7.09856 26.8195 7.26028 26.8182 7.41699 26.786C7.59573 26.751 7.76565 26.6819 7.917 26.5826C8.06836 26.4833 8.19818 26.3558 8.29902 26.2074L11.5372 21.3723C11.6275 21.243 11.7661 21.1536 11.9233 21.1234C12.0804 21.0931 12.2434 21.1244 12.3771 21.2105C12.5108 21.2966 12.6046 21.4306 12.6382 21.5836C12.6717 21.7366 12.6424 21.8964 12.5566 22.0285H12.5596ZM25.4025 0.64806C24.2641 -0.145355 22.7167 -0.20501 21.0503 0.484008C19.3319 1.25144 17.86 2.46207 16.7928 3.98577C15.2484 6.10353 14.5251 8.52852 14.8608 10.4733C14.9351 10.9234 14.8942 11.3846 14.7418 11.8155C14.716 11.8898 14.7053 11.9682 14.7105 12.0465C14.7157 12.1247 14.7366 12.2012 14.772 12.2716C14.8074 12.3419 14.8567 12.4047 14.917 12.4565C14.9772 12.5082 15.0474 12.5479 15.1233 12.5731C15.1993 12.5984 15.2796 12.6088 15.3596 12.6037C15.4397 12.5987 15.5179 12.5783 15.5899 12.5436C15.6619 12.509 15.7262 12.4609 15.7792 12.402C15.8321 12.3431 15.8727 12.2745 15.8985 12.2003C16.116 11.5824 16.1737 10.9214 16.0664 10.2764C15.7886 8.65976 16.4479 6.51515 17.7877 4.67777C18.7209 3.33526 20.0101 2.26606 21.5173 1.58465C22.7808 1.06565 23.9039 1.07758 24.6852 1.62342C25.4666 2.16927 25.8481 3.20131 25.7565 4.53758C25.59 6.15269 24.977 7.6931 23.9833 8.99383C22.6557 10.8342 20.7817 12.1436 19.1275 12.4121C18.4815 12.5207 17.8721 12.7807 17.3513 13.1697C17.209 13.2759 17.0734 13.3905 16.9454 13.5127C16.8384 13.6249 16.7798 13.7729 16.7816 13.9262C16.7834 14.0795 16.8455 14.2262 16.955 14.336C17.0645 14.4457 17.2131 14.51 17.3698 14.5156C17.5266 14.5211 17.6795 14.4675 17.7969 14.3658C17.8932 14.2771 17.9951 14.1944 18.1021 14.1182C18.4643 13.8464 18.8883 13.6643 19.3381 13.5873C21.3311 13.2622 23.44 11.7976 24.9874 9.68583C26.1124 8.20428 26.8034 6.45138 26.9865 4.61513C27.0963 2.85232 26.5348 1.44148 25.4025 0.64806ZM12.0805 11.4964C12.0666 11.4722 12.0592 11.445 12.0592 11.4173C12.0592 11.3896 12.0666 11.3624 12.0805 11.3383C12.3464 10.7509 12.4514 10.1059 12.385 9.46685C12.3186 8.82778 12.0833 8.21658 11.702 7.69335L6.25113 0.260301C6.20527 0.19463 6.14645 0.138579 6.07811 0.095442C6.00978 0.0523053 5.93331 0.0229533 5.8532 0.00911118C5.7731 -0.00473099 5.69097 -0.00278412 5.61164 0.0148374C5.53231 0.0324589 5.45739 0.0653995 5.39127 0.111723C5.32516 0.158047 5.26919 0.216819 5.22664 0.284586C5.1841 0.352353 5.15585 0.427747 5.14355 0.506337C5.13125 0.584927 5.13514 0.665127 5.15501 0.742225C5.17487 0.819322 5.2103 0.891761 5.25922 0.955285L10.704 8.38833C10.9623 8.74231 11.1218 9.15594 11.1667 9.58849C11.2117 10.021 11.1406 10.4576 10.9604 10.8551C10.8574 11.0763 10.8175 11.3205 10.8449 11.5621C10.8723 11.8036 10.966 12.0334 11.116 12.2271L21.1876 24.9576C21.2871 25.0794 21.3601 25.2196 21.4023 25.3699C21.4444 25.5201 21.4549 25.6771 21.433 25.8314C21.4111 25.9857 21.3574 26.1341 21.275 26.2674C21.1925 26.4008 21.0832 26.5164 20.9537 26.6071C20.8241 26.6979 20.677 26.7619 20.5214 26.7954C20.3657 26.8288 20.2047 26.8309 20.0481 26.8016C19.8915 26.7723 19.7427 26.7122 19.6107 26.6249C19.4787 26.5376 19.3662 26.425 19.2801 26.2939L10.1424 12.9012C10.0037 12.6981 9.81129 12.5353 9.58563 12.4303C9.35997 12.3253 9.10944 12.2819 8.86059 12.3047C8.41746 12.3446 7.97134 12.271 7.5662 12.0911C7.16106 11.9111 6.81089 11.6311 6.55022 11.2786L1.1146 3.86348C1.06874 3.79781 1.00992 3.74176 0.941587 3.69862C0.873252 3.65548 0.796783 3.62613 0.716676 3.61229C0.636568 3.59845 0.554438 3.60039 0.475111 3.61801C0.395784 3.63564 0.320862 3.66858 0.254747 3.7149C0.188632 3.76122 0.132659 3.82 0.0901173 3.88776C0.0475753 3.95553 0.0193229 4.03092 0.00702037 4.10951C-0.00528212 4.1881 -0.0013864 4.2683 0.0184785 4.3454C0.0383433 4.4225 0.0737766 4.49494 0.122696 4.55846L5.56442 11.9885C5.94959 12.5106 6.46758 12.9253 7.06712 13.1916C7.66666 13.4578 8.32696 13.5665 8.98267 13.5068C9.01095 13.5024 9.0399 13.5054 9.06666 13.5153C9.09341 13.5253 9.11706 13.5418 9.13527 13.5634L18.2608 26.953C18.4378 27.2157 18.6677 27.4405 18.9363 27.6138C19.2049 27.7871 19.5067 27.9053 19.8234 27.9612C19.9674 27.987 20.1135 28 20.2598 28C20.7071 27.9988 21.1452 27.8752 21.5243 27.6433C21.9035 27.4114 22.2087 27.0803 22.4053 26.6877C22.6019 26.295 22.6821 25.8564 22.6368 25.4215C22.5915 24.9866 22.4225 24.5727 22.149 24.2268L12.0805 11.4964ZM8.17999 9.89164C8.29185 9.89184 8.40161 9.86201 8.49728 9.80538C8.59296 9.74876 8.67089 9.66754 8.72254 9.57057C8.77419 9.47361 8.79759 9.36465 8.79018 9.25557C8.78277 9.1465 8.74484 9.04151 8.68052 8.95207L3.70575 2.0082C3.65986 1.94396 3.60147 1.88918 3.53392 1.847C3.46637 1.80481 3.39098 1.77604 3.31205 1.76233C3.23312 1.74862 3.1522 1.75024 3.07391 1.76709C2.99562 1.78395 2.9215 1.8157 2.85577 1.86055C2.79004 1.9054 2.73399 1.96247 2.69082 2.02849C2.64766 2.0945 2.61822 2.16819 2.60419 2.24532C2.59016 2.32246 2.59182 2.40154 2.60906 2.47806C2.62631 2.55457 2.6588 2.62701 2.70469 2.69125L7.67946 9.63512C7.73556 9.71415 7.81037 9.77874 7.89752 9.82341C7.98467 9.86807 8.08158 9.89148 8.17999 9.89164Z"/>
</mask>
<path d="M12.5596 22.0285L9.30924 26.8576C9.11929 27.138 8.8746 27.3791 8.58917 27.5669C8.30374 27.7548 7.9832 27.8857 7.64589 27.9523C7.48409 27.9838 7.31951 27.9998 7.15452 28C6.6737 28.0011 6.20366 27.8608 5.80553 27.5973C5.52432 27.4136 5.28523 27.1747 5.10345 26.8959C4.92167 26.6171 4.80115 26.3044 4.74954 25.9777C4.69616 25.6519 4.71111 25.3189 4.79348 24.999C4.87585 24.679 5.02392 24.3787 5.2287 24.1164L9.69989 18.4492C9.74899 18.3871 9.81012 18.3351 9.87979 18.2961C9.94946 18.2571 10.0263 18.2319 10.1059 18.2219C10.1856 18.2119 10.2664 18.2174 10.3439 18.238C10.4214 18.2585 10.494 18.2938 10.5575 18.3418C10.621 18.3898 10.6743 18.4495 10.7142 18.5176C10.7541 18.5857 10.7799 18.6608 10.7901 18.7386C10.8003 18.8165 10.7947 18.8955 10.7736 18.9712C10.7526 19.047 10.7165 19.1179 10.6674 19.18L6.19619 24.8472C6.09244 24.9809 6.01779 25.1339 5.97685 25.2968C5.9359 25.4598 5.92953 25.6292 5.95813 25.7946C5.98672 25.96 6.04967 26.118 6.1431 26.2587C6.23654 26.3995 6.35847 26.5201 6.50139 26.613C6.63453 26.7 6.7841 26.7601 6.94133 26.7898C7.09856 26.8195 7.26028 26.8182 7.41699 26.786C7.59573 26.751 7.76565 26.6819 7.917 26.5826C8.06836 26.4833 8.19818 26.3558 8.29902 26.2074L11.5372 21.3723C11.6275 21.243 11.7661 21.1536 11.9233 21.1234C12.0804 21.0931 12.2434 21.1244 12.3771 21.2105C12.5108 21.2966 12.6046 21.4306 12.6382 21.5836C12.6717 21.7366 12.6424 21.8964 12.5566 22.0285H12.5596ZM25.4025 0.64806C24.2641 -0.145355 22.7167 -0.20501 21.0503 0.484008C19.3319 1.25144 17.86 2.46207 16.7928 3.98577C15.2484 6.10353 14.5251 8.52852 14.8608 10.4733C14.9351 10.9234 14.8942 11.3846 14.7418 11.8155C14.716 11.8898 14.7053 11.9682 14.7105 12.0465C14.7157 12.1247 14.7366 12.2012 14.772 12.2716C14.8074 12.3419 14.8567 12.4047 14.917 12.4565C14.9772 12.5082 15.0474 12.5479 15.1233 12.5731C15.1993 12.5984 15.2796 12.6088 15.3596 12.6037C15.4397 12.5987 15.5179 12.5783 15.5899 12.5436C15.6619 12.509 15.7262 12.4609 15.7792 12.402C15.8321 12.3431 15.8727 12.2745 15.8985 12.2003C16.116 11.5824 16.1737 10.9214 16.0664 10.2764C15.7886 8.65976 16.4479 6.51515 17.7877 4.67777C18.7209 3.33526 20.0101 2.26606 21.5173 1.58465C22.7808 1.06565 23.9039 1.07758 24.6852 1.62342C25.4666 2.16927 25.8481 3.20131 25.7565 4.53758C25.59 6.15269 24.977 7.6931 23.9833 8.99383C22.6557 10.8342 20.7817 12.1436 19.1275 12.4121C18.4815 12.5207 17.8721 12.7807 17.3513 13.1697C17.209 13.2759 17.0734 13.3905 16.9454 13.5127C16.8384 13.6249 16.7798 13.7729 16.7816 13.9262C16.7834 14.0795 16.8455 14.2262 16.955 14.336C17.0645 14.4457 17.2131 14.51 17.3698 14.5156C17.5266 14.5211 17.6795 14.4675 17.7969 14.3658C17.8932 14.2771 17.9951 14.1944 18.1021 14.1182C18.4643 13.8464 18.8883 13.6643 19.3381 13.5873C21.3311 13.2622 23.44 11.7976 24.9874 9.68583C26.1124 8.20428 26.8034 6.45138 26.9865 4.61513C27.0963 2.85232 26.5348 1.44148 25.4025 0.64806ZM12.0805 11.4964C12.0666 11.4722 12.0592 11.445 12.0592 11.4173C12.0592 11.3896 12.0666 11.3624 12.0805 11.3383C12.3464 10.7509 12.4514 10.1059 12.385 9.46685C12.3186 8.82778 12.0833 8.21658 11.702 7.69335L6.25113 0.260301C6.20527 0.19463 6.14645 0.138579 6.07811 0.095442C6.00978 0.0523053 5.93331 0.0229533 5.8532 0.00911118C5.7731 -0.00473099 5.69097 -0.00278412 5.61164 0.0148374C5.53231 0.0324589 5.45739 0.0653995 5.39127 0.111723C5.32516 0.158047 5.26919 0.216819 5.22664 0.284586C5.1841 0.352353 5.15585 0.427747 5.14355 0.506337C5.13125 0.584927 5.13514 0.665127 5.15501 0.742225C5.17487 0.819322 5.2103 0.891761 5.25922 0.955285L10.704 8.38833C10.9623 8.74231 11.1218 9.15594 11.1667 9.58849C11.2117 10.021 11.1406 10.4576 10.9604 10.8551C10.8574 11.0763 10.8175 11.3205 10.8449 11.5621C10.8723 11.8036 10.966 12.0334 11.116 12.2271L21.1876 24.9576C21.2871 25.0794 21.3601 25.2196 21.4023 25.3699C21.4444 25.5201 21.4549 25.6771 21.433 25.8314C21.4111 25.9857 21.3574 26.1341 21.275 26.2674C21.1925 26.4008 21.0832 26.5164 20.9537 26.6071C20.8241 26.6979 20.677 26.7619 20.5214 26.7954C20.3657 26.8288 20.2047 26.8309 20.0481 26.8016C19.8915 26.7723 19.7427 26.7122 19.6107 26.6249C19.4787 26.5376 19.3662 26.425 19.2801 26.2939L10.1424 12.9012C10.0037 12.6981 9.81129 12.5353 9.58563 12.4303C9.35997 12.3253 9.10944 12.2819 8.86059 12.3047C8.41746 12.3446 7.97134 12.271 7.5662 12.0911C7.16106 11.9111 6.81089 11.6311 6.55022 11.2786L1.1146 3.86348C1.06874 3.79781 1.00992 3.74176 0.941587 3.69862C0.873252 3.65548 0.796783 3.62613 0.716676 3.61229C0.636568 3.59845 0.554438 3.60039 0.475111 3.61801C0.395784 3.63564 0.320862 3.66858 0.254747 3.7149C0.188632 3.76122 0.132659 3.82 0.0901173 3.88776C0.0475753 3.95553 0.0193229 4.03092 0.00702037 4.10951C-0.00528212 4.1881 -0.0013864 4.2683 0.0184785 4.3454C0.0383433 4.4225 0.0737766 4.49494 0.122696 4.55846L5.56442 11.9885C5.94959 12.5106 6.46758 12.9253 7.06712 13.1916C7.66666 13.4578 8.32696 13.5665 8.98267 13.5068C9.01095 13.5024 9.0399 13.5054 9.06666 13.5153C9.09341 13.5253 9.11706 13.5418 9.13527 13.5634L18.2608 26.953C18.4378 27.2157 18.6677 27.4405 18.9363 27.6138C19.2049 27.7871 19.5067 27.9053 19.8234 27.9612C19.9674 27.987 20.1135 28 20.2598 28C20.7071 27.9988 21.1452 27.8752 21.5243 27.6433C21.9035 27.4114 22.2087 27.0803 22.4053 26.6877C22.6019 26.295 22.6821 25.8564 22.6368 25.4215C22.5915 24.9866 22.4225 24.5727 22.149 24.2268L12.0805 11.4964ZM8.17999 9.89164C8.29185 9.89184 8.40161 9.86201 8.49728 9.80538C8.59296 9.74876 8.67089 9.66754 8.72254 9.57057C8.77419 9.47361 8.79759 9.36465 8.79018 9.25557C8.78277 9.1465 8.74484 9.04151 8.68052 8.95207L3.70575 2.0082C3.65986 1.94396 3.60147 1.88918 3.53392 1.847C3.46637 1.80481 3.39098 1.77604 3.31205 1.76233C3.23312 1.74862 3.1522 1.75024 3.07391 1.76709C2.99562 1.78395 2.9215 1.8157 2.85577 1.86055C2.79004 1.9054 2.73399 1.96247 2.69082 2.02849C2.64766 2.0945 2.61822 2.16819 2.60419 2.24532C2.59016 2.32246 2.59182 2.40154 2.60906 2.47806C2.62631 2.55457 2.6588 2.62701 2.70469 2.69125L7.67946 9.63512C7.73556 9.71415 7.81037 9.77874 7.89752 9.82341C7.98467 9.86807 8.08158 9.89148 8.17999 9.89164Z" fill="white" stroke="#8A9765" stroke-width="0.6" mask="url(#path-1-inside-1_52_864)"/>
</svg>
