<svg width="21" height="32" viewBox="0 0 21 32" fill="none" xmlns="http://www.w3.org/2000/svg">
<path fill-rule="evenodd" clip-rule="evenodd" d="M5.64859 0.552085C5.79412 0.160323 6.18781 -0.0610971 6.58003 0.0148097L12.1027 1.08389C12.4949 1.15982 12.7855 1.51367 12.7857 1.93367C12.7858 2.32386 12.7791 2.71085 12.7659 3.09382L16.6832 2.68814C17.0802 2.64703 17.4543 2.90231 17.5674 3.30548C17.8642 4.36332 18.102 5.41213 18.2817 6.43381C18.7128 8.88483 18.8113 11.187 18.5866 13.0871C18.5267 13.5935 18.4437 14.0725 18.3375 14.519C18.0433 15.8674 17.6256 16.9911 17.2376 18.0348C17.0848 18.4458 16.9366 18.8444 16.8024 19.2394C16.3246 20.6457 15.9987 22.0634 16.1834 23.9907L16.4111 26.367C16.4602 26.8795 16.655 27.5488 16.9508 28.1346C17.2524 28.7319 17.6256 29.177 17.9957 29.3292C18.3917 29.4921 19.4978 29.7847 20.5736 30.0594C21.1842 30.2152 21.122 31.1313 20.4961 31.1961L12.7654 31.9966C12.1395 32.0614 11.9047 31.1761 12.4738 30.8981C13.4762 30.4082 14.5051 29.8945 14.8625 29.6536C15.1964 29.4285 15.4778 28.9156 15.6601 28.2682C15.8389 27.6333 15.9028 26.9372 15.8537 26.4247L15.626 24.0484C15.4413 22.1211 14.8528 20.7981 14.1174 19.5174C13.9109 19.1577 13.69 18.7973 13.4623 18.4258C12.8838 17.4821 12.261 16.4662 11.7167 15.2047C11.5279 14.7887 11.3556 14.3361 11.2008 13.8519C11.0512 13.384 10.9176 12.8858 10.801 12.3617C10.7063 12.5565 10.6087 12.744 10.5084 12.9237C9.86322 14.1329 9.15993 15.0902 8.50661 15.9795C8.24938 16.3297 7.99989 16.6693 7.76478 17.0096C6.92773 18.2208 6.23346 19.4873 5.89238 21.3914L5.47175 23.7391C5.38106 24.2454 5.388 24.9446 5.51443 25.5931C5.64327 26.2542 5.8819 26.79 6.19627 27.0437C6.53264 27.3152 7.51596 27.9177 8.4749 28.494C9.01922 28.8212 8.71314 29.6826 8.09472 29.563L0.457146 28.0844C-0.16126 27.9647 -0.148493 27.0465 0.472595 26.9449C1.56686 26.766 2.6929 26.5719 3.10074 26.4445C3.48187 26.3254 3.89007 25.9148 4.23927 25.3462C4.5817 24.7885 4.83036 24.1388 4.92105 23.6324L5.34168 21.2848C5.68276 19.3806 5.4736 17.9394 5.11218 16.4961C5.01062 16.0906 4.89551 15.6805 4.77675 15.2575C4.47521 14.1833 4.15054 13.027 3.96737 11.6575C3.89791 11.2033 3.85427 10.7186 3.8359 10.2087C3.76862 8.34464 4.03829 6.12747 4.63419 3.79128C4.90481 2.73024 5.24314 1.64329 5.64859 0.552085ZM4.52143 11.5717C4.46323 11.1352 4.41948 10.675 4.39562 10.185C4.33204 8.41702 4.58333 6.29505 5.15089 4.03823C5.82006 3.54451 6.59202 3.66743 7.52044 3.99514C7.75369 4.07748 7.99036 4.17023 8.23387 4.26567L8.24675 4.27074C8.49317 4.36734 8.74642 4.46638 9.00101 4.55576C9.41705 4.70169 9.84921 4.82629 10.2862 4.87486C10.255 5.41825 10.2376 5.95529 10.2335 6.48377C10.2196 8.24449 10.3525 9.91221 10.6121 11.4053C10.4222 11.8475 10.2242 12.2554 10.0212 12.6363C9.05602 14.3628 7.91748 15.1718 6.76181 14.9481C5.60608 14.7243 4.82403 13.5436 4.52143 11.5717ZM5.20046 14.6852C5.23497 14.8092 5.26958 14.9324 5.30404 15.0552C5.42548 15.4876 5.54535 15.9145 5.65425 16.3494C5.85552 17.153 6.0136 17.9676 6.06054 18.8622C6.41423 18.0451 6.84376 17.3443 7.30982 16.6699C7.562 16.3049 7.8217 15.9514 8.08469 15.5935C8.15936 15.4918 8.23437 15.3898 8.30949 15.2871C7.7929 15.5419 7.2403 15.633 6.65924 15.5206C6.07813 15.4081 5.5942 15.1163 5.20046 14.6852ZM10.3246 4.2935C10.3306 4.21361 10.3369 4.13361 10.3435 4.05354C10.3778 3.63506 10.6962 3.3081 11.0932 3.26699L12.2033 3.15205C12.2181 2.75033 12.2256 2.34395 12.2255 1.93385C12.2254 1.79957 12.1322 1.68189 12.0001 1.65633L6.47747 0.587255C6.34544 0.561692 6.21766 0.636574 6.17111 0.761882C5.85781 1.60509 5.58546 2.44533 5.35434 3.272C6.11952 2.97864 6.93423 3.1733 7.70053 3.44377C7.94275 3.52931 8.18698 3.62498 8.42763 3.71931L8.44438 3.72589C8.69203 3.82296 8.93631 3.91845 9.18015 4.00405C9.57401 4.14223 9.95509 4.25006 10.3246 4.2935ZM4.90318 25.3225C4.84268 25.4373 4.7786 25.5501 4.71144 25.6595C4.34212 26.2608 3.84094 26.8212 3.26201 27.0021C2.81085 27.143 1.64806 27.3421 0.582483 27.5164L8.17449 28.9861C7.24075 28.4247 6.22483 27.8039 5.85272 27.5036C5.37523 27.1182 5.1017 26.4079 4.96542 25.7087C4.9406 25.5815 4.91987 25.4523 4.90318 25.3225ZM12.2257 14.9612C12.0523 14.5591 11.8865 14.1299 11.7318 13.6664C11.5109 12.9755 11.325 12.2107 11.1783 11.3866C10.9229 9.95227 10.7873 8.34196 10.7928 6.634C11.2176 6.33255 11.6896 6.26151 12.2154 6.32172C12.6582 6.3725 13.1275 6.51533 13.6242 6.68728C13.7528 6.73177 13.8838 6.77847 14.0163 6.82575C14.3859 6.95746 14.7674 7.09348 15.1413 7.19806C16.0277 7.446 16.9631 7.54505 17.8084 7.00218C18.1646 9.23251 18.2329 11.3038 18.0308 13.0141C17.9671 13.5003 17.886 13.955 17.7924 14.3847C17.3302 16.3229 16.4547 17.4306 15.2849 17.5517C14.1151 17.6729 13.0466 16.7665 12.2257 14.9612ZM13.7151 17.7532C13.7816 17.8622 13.848 17.9704 13.9141 18.0783C14.147 18.4581 14.3769 18.8331 14.5985 19.219C15.0079 19.9321 15.3788 20.6682 15.6646 21.5136C15.7843 20.6262 16.0082 19.8285 16.2742 19.0455C16.4182 18.6218 16.5724 18.207 16.7287 17.7869C16.773 17.6675 16.8176 17.5478 16.862 17.4272C16.4346 17.8221 15.9286 18.0702 15.3404 18.1311C14.7522 18.192 14.2091 18.0526 13.7151 17.7532ZM17.7008 6.37162C17.5283 5.42255 17.305 4.44979 17.0297 3.46852C16.9936 3.3396 16.8723 3.25372 16.7387 3.26757L11.1487 3.84643C11.0151 3.86028 10.9126 3.96923 10.9016 4.1031C10.8873 4.27737 10.8744 4.45113 10.8629 4.62424C10.8333 5.07388 10.8131 5.51921 10.8023 5.95907C11.2742 5.72767 11.7751 5.68546 12.2768 5.74299C12.7827 5.80092 13.2998 5.96123 13.8012 6.13481C13.9406 6.18308 14.0782 6.23211 14.2145 6.28073C14.5782 6.41035 14.9327 6.5367 15.2869 6.63581C16.2012 6.89155 17.0048 6.93265 17.7008 6.37162ZM16.2912 28.0525C16.2639 28.1804 16.2328 28.3073 16.1977 28.4318C16.0049 29.1165 15.6745 29.8002 15.1673 30.1422C14.7721 30.4086 13.7091 30.9377 12.733 31.4148L20.4175 30.6191C19.37 30.3515 18.2276 30.0508 17.7896 29.8706C17.2274 29.6394 16.7738 29.0369 16.4548 28.4052C16.3968 28.2903 16.3421 28.1723 16.2912 28.0525Z" fill="white"/>
</svg>
