<svg width="15" height="18" viewBox="0 0 15 18" fill="none" xmlns="http://www.w3.org/2000/svg">
<path d="M7.24725 6.80763C7.35562 6.58499 7.44893 6.39479 7.54376 6.20311C8.19246 4.88791 8.96308 3.6538 10.0272 2.61284C10.4125 2.23538 10.8053 1.86825 11.2614 1.57483C11.7355 1.2711 12.2457 1.0632 12.8222 1.04551C13.218 1.03224 13.5763 1.13692 13.8954 1.36841C14.6314 1.90216 14.9896 2.63054 15.0001 3.51962C15.0076 4.15658 14.8993 4.78027 14.6991 5.38627C13.8291 8.0093 12.4519 10.3507 10.5525 12.384C9.1738 13.8584 7.70631 15.2503 6.17109 16.5699C5.74063 16.94 5.31167 17.3116 4.8812 17.6816C4.7924 17.7568 4.7051 17.835 4.60727 17.8969C4.40107 18.0267 4.16477 18.034 4.085 17.9117C3.9676 17.7288 4.07747 17.5696 4.20089 17.4502C4.49288 17.1671 4.79541 16.8943 5.10848 16.6333C6.6452 15.3579 8.07506 13.972 9.48837 12.5698C11.5549 10.5188 13.0465 8.11841 14.0097 5.39954C14.2325 4.76995 14.3619 4.12267 14.3439 3.45327C14.3273 2.87677 14.1031 2.39168 13.6681 2.0039C13.3294 1.70311 12.9396 1.59843 12.4866 1.72523C12.0124 1.8594 11.594 2.08499 11.2177 2.39462C9.97 3.42084 9.04285 4.68443 8.32341 6.10432C8.06152 6.6189 7.80565 7.13643 7.61751 7.68345C7.59342 7.75128 7.56633 7.8191 7.53473 7.8825C7.45947 8.03289 7.35261 8.14643 7.16447 8.13905C6.97633 8.13168 6.87699 8.01373 6.81377 7.85744C6.69487 7.56255 6.62112 7.25439 6.5564 6.94328C6.24183 5.41871 5.68945 3.98997 4.81197 2.68804C4.47031 2.1823 4.07596 1.71933 3.61389 1.31386C3.34899 1.08237 3.06152 0.884795 2.73039 0.756518C2.04255 0.48817 1.53232 0.653307 1.15905 1.27995C0.850498 1.79895 0.706007 2.37103 0.665369 2.96523C0.594629 3.98407 0.755676 4.97637 1.07476 5.94066C1.67079 7.73801 2.49108 9.44099 3.41973 11.0924C3.84719 11.8532 4.41161 12.5167 5.06332 13.1079C5.17621 13.2097 5.37488 13.3173 5.22437 13.4883C5.06483 13.6697 4.93689 13.4706 4.82702 13.3778C4.03984 12.7157 3.38211 11.9416 2.87187 11.0599C2.00643 9.57074 1.22076 8.04174 0.605164 6.43755C0.150619 5.25504 -0.0932101 4.03273 0.0332197 2.75881C0.0858988 2.23981 0.216844 1.73997 0.429066 1.26225C0.517868 1.0632 0.632256 0.880372 0.767717 0.707862C1.25989 0.0768001 1.90408 -0.119301 2.68072 0.0694279C3.22407 0.202128 3.66657 0.505863 4.07446 0.864153C4.80444 1.50554 5.37037 2.27519 5.83846 3.1112C6.41341 4.13742 6.83786 5.22261 7.09072 6.36972C7.12082 6.5039 7.13587 6.64397 7.24725 6.80763Z" fill="#DC8982"/>
</svg>
