<svg width="29" height="19" viewBox="0 0 29 19" fill="none" xmlns="http://www.w3.org/2000/svg">
<path d="M14.3749 17.2846L14.3221 17.2519L14.2694 17.2846C12.803 18.1946 11.1088 18.6791 9.3794 18.6791C4.26057 18.6791 0.1 14.5147 0.1 9.39001C0.1 4.26531 4.26058 0.1 9.3794 0.1C11.1071 0.1 12.8001 0.58323 14.2656 1.49157L14.3183 1.52422L14.371 1.49157C15.8361 0.583568 17.5262 0.1 19.2534 0.1C24.3722 0.1 28.5328 4.26531 28.5328 9.39001C28.5328 14.5147 24.3722 18.6791 19.2534 18.6791C17.5266 18.6791 15.8397 18.1927 14.3749 17.2846ZM13.4916 2.10964L13.6093 2.01628L13.4777 1.94372C12.2259 1.25339 10.8161 0.887203 9.3794 0.887203C4.68411 0.887203 0.888166 4.68793 0.888166 9.39001C0.888166 14.0921 4.68412 17.8918 9.3794 17.8918C11.0619 17.8918 12.708 17.3914 14.106 16.4539C14.7004 16.0553 15.2415 15.5837 15.7176 15.0491C17.1051 13.4912 17.8706 11.4775 17.8706 9.39001C17.8706 7.43831 17.2011 5.55071 15.98 4.0402L15.9239 3.97078L15.8486 4.01869C15.5327 4.21964 15.2358 4.44819 14.9602 4.70138L14.8904 4.76551L14.9507 4.83864C16.0041 6.11618 16.5851 7.72461 16.5851 9.39001C16.5851 11.1987 15.8981 12.9421 14.6664 14.2656C14.1477 14.823 13.5433 15.294 12.8761 15.6604C11.8236 16.2385 10.6418 16.5408 9.4411 16.5408C5.50276 16.5408 2.30096 13.3328 2.30096 9.39001C2.30096 5.44726 5.50271 2.24216 9.4411 2.24216C10.4986 2.24216 11.5412 2.47682 12.4939 2.92764L12.5585 2.9582L12.6084 2.907C12.8838 2.62406 13.1787 2.35776 13.4916 2.10964ZM15.1421 16.6704L15.0245 16.7638L15.156 16.8363C16.4076 17.5263 17.8171 17.8918 19.2534 17.8918C23.9486 17.8918 27.7456 14.0921 27.7456 9.39001C27.7456 4.68791 23.9487 0.887203 19.2534 0.887203C17.5754 0.887203 15.9333 1.38455 14.5375 2.31738C12.177 3.89501 10.7621 6.54806 10.7621 9.39001C10.7621 11.3529 11.4408 13.2504 12.6751 14.7652L12.7309 14.8335L12.8056 14.7868C13.137 14.5799 13.4492 14.3441 13.7371 14.0796L13.8069 14.0155L13.7467 13.9424C12.6934 12.6645 12.1103 11.0548 12.1103 9.39001C12.1103 7.58151 12.7975 5.84077 14.029 4.51729C14.5485 3.959 15.1541 3.4853 15.8222 3.1187C16.874 2.54148 18.0535 2.24216 19.2534 2.24216C23.1918 2.24216 26.3935 5.44726 26.3935 9.39001C26.3935 13.3328 23.1917 16.5408 19.2534 16.5408C18.1797 16.5408 17.1224 16.2973 16.1578 15.8324L16.0927 15.8011L16.0425 15.853C15.7601 16.1452 15.4598 16.418 15.1421 16.6704ZM11.9388 3.67576L12.0192 3.57266L11.8986 3.52208C11.1224 3.19629 10.2869 3.02647 9.4411 3.02647C5.92619 3.02647 3.08817 5.8699 3.08817 9.39001C3.08817 12.9101 5.92619 15.7535 9.4411 15.7535C10.2868 15.7535 11.1224 15.5827 11.8986 15.257L12.0192 15.2064L11.9388 15.1033C10.6703 13.4756 9.97493 11.4661 9.97493 9.39001C9.97493 7.29158 10.6831 5.28685 11.9388 3.67576ZM16.7083 15.0852L16.629 15.1874L16.7479 15.2383C17.5378 15.5773 18.3897 15.7535 19.2534 15.7535C22.7683 15.7535 25.6063 12.9101 25.6063 9.39001C25.6063 5.8699 22.7683 3.02647 19.2534 3.02647C18.3903 3.02646 17.5391 3.20333 16.7497 3.54266L16.631 3.59368L16.7102 3.69578C17.9689 5.32 18.6578 7.32235 18.6578 9.39001C18.6578 11.4585 17.9679 13.4606 16.7083 15.0852ZM14.4257 5.44571L14.3472 5.34643L14.2688 5.44571C13.3844 6.56483 12.8975 7.95238 12.8975 9.39001C12.8975 10.8276 13.3843 12.2174 14.2688 13.3372L14.3472 13.4365L14.4257 13.3372C15.3103 12.2174 15.7979 10.8279 15.7979 9.39001C15.7979 7.95238 15.3101 6.56484 14.4257 5.44571Z" fill="white" stroke="#8A9765" stroke-width="0.2"/>
</svg>
